<?xml version="1.0" standalone="no"?>
<!DOCTYPE svg PUBLIC "-//W3C//DTD SVG 20010904//EN"
 "http://www.w3.org/TR/2001/REC-SVG-20010904/DTD/svg10.dtd">
<svg version="1.0" xmlns="http://www.w3.org/2000/svg"
 width="1136.000000pt" height="1136.000000pt" viewBox="0 0 1136.000000 1136.000000"
 preserveAspectRatio="xMidYMid meet">
<metadata>
Created by potrace 1.11, written by Peter Selinger 2001-2013
</metadata>
<g transform="translate(0.000000,1136.000000) scale(0.100000,-0.100000)"
fill="#000000" stroke="none">
<path d="M5544 11221 c-3 -3 -24 -6 -47 -7 -57 -1 -195 -14 -232 -20 -16 -3
-46 -7 -65 -9 -19 -2 -35 -4 -35 -5 0 -1 -14 -3 -31 -5 -48 -5 -151 -23 -224
-40 -14 -3 -36 -7 -50 -10 -56 -11 -71 -14 -147 -35 -44 -12 -86 -22 -94 -24
-18 -3 -186 -54 -219 -66 -14 -5 -38 -15 -55 -21 -16 -7 -32 -13 -35 -14 -27
-7 -60 -19 -85 -30 -25 -12 -41 -18 -75 -30 -57 -21 -427 -201 -440 -215 -10
-10 -45 -30 -72 -41 -16 -6 -28 -15 -28 -20 0 -5 -7 -9 -15 -9 -8 0 -15 -4
-15 -10 0 -5 -5 -10 -11 -10 -11 0 -208 -129 -229 -150 -3 -3 -23 -17 -45 -32
-22 -15 -52 -38 -67 -50 -55 -48 -68 -58 -72 -58 -5 0 -56 -45 -128 -112 -22
-21 -42 -38 -44 -38 -5 0 -176 -173 -239 -241 -86 -93 -151 -173 -240 -290
-46 -63 -91 -123 -100 -134 -8 -10 -15 -23 -15 -28 0 -5 -6 -15 -13 -22 -6 -8
-17 -20 -23 -27 -16 -20 -171 -279 -185 -310 -7 -16 -16 -28 -21 -28 -4 0 -7
-3 -6 -7 3 -10 -84 -185 -95 -194 -4 -3 -9 -16 -10 -27 -1 -12 -4 -22 -7 -22
-3 0 -13 -17 -22 -37 -9 -21 -24 -56 -34 -78 -9 -22 -18 -42 -19 -45 -1 -3 -7
-18 -14 -35 -7 -16 -31 -77 -52 -135 -22 -58 -44 -114 -48 -125 -13 -28 -73
-215 -86 -265 -3 -8 -21 -73 -41 -145 -19 -71 -38 -141 -40 -155 -3 -14 -9
-41 -14 -60 -5 -19 -11 -46 -14 -60 -7 -33 -14 -68 -23 -105 -3 -16 -7 -37 -8
-45 -2 -8 -5 -28 -8 -45 -12 -59 -41 -244 -52 -325 -3 -25 -8 -56 -10 -70 -2
-14 -7 -58 -10 -97 -3 -40 -8 -80 -9 -90 -4 -19 -16 -161 -22 -258 -8 -127
-16 -1055 -9 -1055 4 0 41 20 82 45 40 25 77 45 82 45 5 0 14 7 21 15 7 8 21
15 30 15 10 0 20 4 22 9 2 4 39 29 83 54 44 25 178 102 299 171 155 89 222
123 231 116 6 -5 14 -8 17 -5 3 3 13 -4 23 -15 10 -11 22 -20 27 -20 5 0 74
-38 154 -85 80 -47 149 -85 154 -85 6 0 10 -4 10 -9 0 -5 11 -12 25 -15 14 -4
25 -11 25 -16 0 -6 6 -10 13 -10 7 0 24 -8 37 -17 14 -10 31 -18 39 -20 8 -1
17 -6 20 -11 3 -5 16 -12 27 -16 l22 -7 0 263 c0 253 7 538 18 663 2 33 6 88
8 123 3 34 7 86 11 115 3 28 8 68 10 87 6 66 16 151 20 170 4 20 17 107 20
130 1 8 5 31 9 50 3 19 8 46 10 60 3 14 5 25 6 25 1 0 3 9 5 20 1 11 5 34 9
50 3 17 8 44 12 60 26 142 138 530 168 585 8 14 14 29 14 33 0 10 18 58 43
114 11 24 19 45 19 48 0 3 24 57 54 120 185 391 431 722 721 970 39 33 72 62
75 65 13 13 94 71 180 129 101 68 316 181 415 220 33 12 69 27 80 31 58 25
138 50 143 45 3 -2 10 -1 16 4 10 8 138 44 196 55 14 3 36 7 50 10 48 11 75
15 120 22 24 3 47 7 50 9 5 3 96 12 230 22 180 13 564 2 710 -22 32 -5 117
-16 152 -20 14 -2 31 -6 36 -9 5 -3 25 -8 43 -11 19 -2 46 -7 61 -10 44 -9
268 -75 286 -85 9 -4 44 -18 77 -31 33 -12 98 -42 146 -66 47 -23 88 -43 92
-43 5 0 13 -4 20 -10 7 -5 57 -40 112 -76 117 -77 191 -138 295 -243 108 -109
216 -241 233 -283 3 -10 11 -18 17 -18 5 0 10 -6 10 -13 0 -7 9 -23 20 -35 12
-12 18 -22 15 -22 -3 0 7 -19 23 -42 43 -64 192 -375 192 -401 0 -7 4 -17 9
-22 7 -8 38 -92 46 -125 1 -3 4 -12 8 -20 25 -61 101 -342 133 -492 15 -70 19
-94 28 -158 3 -16 7 -37 10 -47 3 -10 8 -36 10 -58 3 -22 8 -49 10 -60 2 -11
5 -26 5 -32 1 -10 153 -13 726 -13 l724 0 -4 33 c-2 17 -7 51 -10 75 -3 23 -7
61 -10 85 -3 23 -7 53 -10 67 -3 14 -7 45 -10 70 -3 25 -7 56 -10 70 -3 14 -8
39 -10 55 -3 17 -8 37 -10 45 -2 8 -7 35 -10 60 -4 24 -9 48 -12 53 -3 4 -7
23 -10 40 -2 18 -8 46 -13 62 -5 17 -11 41 -14 55 -6 31 -32 127 -53 200 -10
30 -18 57 -18 60 -9 39 -108 316 -134 375 -5 11 -17 38 -26 60 -29 66 -148
310 -154 315 -3 3 -13 18 -21 35 -34 68 -190 313 -224 352 -29 33 -36 43 -36
50 0 4 -13 22 -28 38 -15 17 -43 50 -62 75 -70 90 -285 313 -395 410 -267 236
-626 463 -920 581 -33 13 -61 27 -63 32 -2 4 -14 7 -26 7 -12 0 -27 5 -33 11
-6 6 -17 11 -24 13 -13 2 -90 29 -134 46 -22 9 -173 54 -220 66 -40 10 -45 11
-47 14 -2 1 -10 3 -18 5 -47 11 -159 36 -180 41 -14 2 -45 8 -70 14 -41 8 -81
15 -150 26 -14 2 -39 6 -57 9 -17 3 -55 8 -85 11 -29 3 -66 7 -83 10 -40 7
-102 13 -200 20 -105 8 -754 12 -761 5z"/>
<path d="M2305 5510 c-75 -42 -482 -278 -501 -289 -20 -13 -20 -21 -20 -327 1
-313 1 -314 23 -329 21 -15 70 -43 193 -113 25 -14 78 -45 118 -69 41 -24 76
-43 78 -43 3 0 31 -17 62 -37 31 -20 64 -36 73 -35 9 0 51 21 94 47 43 25 83
47 89 48 10 2 17 7 51 35 8 7 15 10 15 7 0 -4 12 2 28 13 15 10 47 30 72 44
25 14 61 35 80 47 19 11 42 24 50 28 8 3 27 15 42 25 24 17 27 25 27 78 0 33
2 64 6 70 3 5 2 10 -3 10 -5 0 -6 17 -2 40 4 22 4 40 0 40 -4 0 -4 18 0 40 4
23 3 40 -2 40 -5 0 -6 5 -3 10 8 13 9 206 1 219 -4 5 -2 12 3 15 4 3 5 24 1
46 -8 43 -20 56 -94 95 -22 12 -57 32 -76 44 -19 11 -42 24 -50 28 -8 4 -47
26 -86 50 -39 24 -77 43 -83 43 -6 0 -11 4 -11 9 0 5 -17 16 -37 25 -21 9 -54
27 -73 40 -34 22 -36 22 -65 6z"/>
<path d="M3005 3876 c-11 -6 -22 -13 -25 -17 -3 -3 -21 -13 -40 -22 -19 -10
-48 -26 -65 -37 -16 -10 -46 -27 -65 -38 -53 -29 -99 -56 -158 -91 -29 -17
-57 -31 -62 -31 -13 0 -12 23 -14 -329 l-1 -313 25 -17 c14 -10 32 -21 40 -24
8 -4 33 -18 55 -32 22 -14 47 -28 55 -32 8 -4 59 -33 112 -65 53 -32 99 -58
102 -58 2 0 34 -18 71 -41 37 -22 72 -42 79 -45 7 -3 52 18 100 46 48 27 92
50 97 50 5 0 9 5 9 10 0 6 7 10 15 10 23 0 21 5 -30 125 -42 100 -110 289
-134 375 -5 19 -19 69 -31 110 -12 41 -24 86 -26 100 -2 14 -10 50 -19 80 -8
30 -17 64 -19 75 -2 11 -12 61 -21 110 -21 110 -24 116 -50 101z"/>
<path d="M1594 3807 c5 -39 9 -60 21 -122 3 -14 7 -37 10 -52 3 -16 8 -39 11
-53 3 -14 8 -36 11 -50 2 -14 16 -72 30 -130 14 -58 26 -111 26 -117 0 -7 4
-13 8 -13 4 0 5 -8 2 -19 -3 -10 0 -22 6 -25 6 -4 11 -15 11 -24 0 -10 11 -53
25 -97 14 -44 27 -88 28 -97 2 -10 6 -21 10 -24 4 -4 7 -13 7 -20 0 -7 5 -25
10 -39 9 -24 11 -25 26 -11 8 9 21 16 27 17 7 0 35 15 62 33 l50 33 0 316 0
316 -35 19 c-19 11 -51 28 -70 38 -19 10 -36 22 -38 27 -2 4 -8 7 -12 7 -5 0
-43 20 -83 45 -41 25 -80 45 -86 45 -6 0 -11 3 -11 8 0 4 -12 12 -26 19 l-26
12 6 -42z"/>
<path d="M8458 3620 c-7 -3 -14 -14 -15 -25 -8 -69 -16 -121 -19 -126 -2 -4
-6 -24 -9 -45 -3 -22 -8 -45 -11 -53 -2 -8 -7 -30 -10 -50 -3 -20 -10 -54 -16
-76 -6 -22 -12 -49 -14 -60 -5 -34 -13 -65 -18 -73 -3 -5 -7 -21 -10 -36 -5
-30 -53 -203 -63 -226 -3 -8 -7 -19 -9 -25 -18 -73 -101 -281 -165 -412 -32
-66 -59 -126 -59 -132 0 -6 -4 -11 -8 -11 -5 0 -17 -18 -27 -40 -10 -22 -22
-40 -27 -40 -4 0 -8 -5 -8 -10 0 -9 -41 -77 -63 -105 -4 -5 -31 -41 -60 -80
-72 -97 -291 -315 -317 -315 -5 0 -10 -4 -10 -8 0 -8 -130 -97 -195 -134 -53
-30 -185 -98 -190 -98 -3 0 -29 -10 -58 -23 -51 -24 -217 -84 -254 -92 -10 -2
-52 -13 -93 -25 -41 -11 -86 -22 -100 -25 -14 -3 -36 -7 -50 -10 -14 -4 -38
-8 -55 -11 -16 -2 -41 -7 -55 -10 -14 -3 -45 -8 -70 -11 -46 -6 -75 -11 -75
-13 0 0 -22 -3 -50 -5 -27 -2 -79 -7 -115 -10 -145 -14 -508 -20 -620 -10 -25
3 -72 6 -105 9 -33 3 -60 5 -60 6 0 1 -16 3 -35 5 -63 7 -114 16 -142 25 -16
5 -28 7 -28 5 0 -4 59 -40 115 -70 54 -28 118 -65 130 -75 10 -8 77 -45 153
-87 24 -13 60 -34 80 -48 20 -14 42 -25 49 -25 7 0 13 -4 13 -9 0 -5 8 -11 18
-14 21 -7 93 -48 108 -63 9 -7 12 -125 12 -420 1 -225 1 -412 1 -417 1 -5 266
-3 266 3 0 1 32 3 70 5 129 8 247 19 315 30 19 3 55 8 80 11 58 7 89 12 120
18 14 3 41 7 60 10 19 3 71 12 115 22 44 9 87 18 95 19 8 2 15 4 15 5 0 1 7 3
15 5 67 14 167 39 225 57 39 11 72 21 75 21 3 0 41 13 85 29 44 16 87 31 96
33 8 2 42 14 75 28 78 32 98 40 104 42 29 9 120 52 235 110 155 79 183 94 203
112 7 7 17 13 22 13 8 0 134 80 156 98 5 5 20 15 33 21 12 7 30 19 39 26 9 7
60 47 113 88 191 148 381 330 524 503 22 27 48 56 58 66 9 10 17 20 17 23 0 3
23 34 50 69 28 35 50 66 50 70 0 3 9 16 20 29 11 13 42 59 70 102 27 44 53 85
57 90 8 10 33 55 56 98 7 12 16 29 22 37 5 8 10 21 12 29 1 8 5 17 10 20 8 6
113 216 113 226 0 2 14 34 30 70 17 36 30 72 30 80 0 8 5 15 12 15 6 0 9 3 5
6 -3 4 0 19 9 35 8 16 12 29 8 29 -4 0 -2 6 3 13 10 11 77 210 103 302 6 22
18 63 26 90 17 61 65 262 69 290 1 11 3 20 4 20 1 0 4 11 6 25 2 14 6 37 9 53
10 46 14 70 20 107 3 19 8 53 12 75 4 22 7 50 8 63 0 12 2 22 6 22 3 0 6 21 8
48 2 26 4 58 5 72 l2 25 -712 0 c-392 0 -719 -2 -725 -5z"/>
<path d="M2165 2331 c-91 -48 -90 -45 -41 -141 23 -47 61 -116 84 -154 23 -37
42 -70 42 -73 0 -8 172 -267 216 -326 24 -31 44 -60 44 -63 0 -3 10 -15 23
-28 12 -13 48 -58 81 -100 32 -42 65 -76 72 -76 7 0 28 9 46 20 l33 20 1 316
1 316 -41 25 c-166 98 -206 120 -206 115 0 -4 -4 -2 -8 3 -4 6 -54 38 -111 70
-57 33 -115 67 -130 76 -45 26 -55 27 -106 0z"/>
<path d="M3583 2217 c-98 -57 -113 -71 -107 -99 3 -13 5 -32 4 -43 -1 -11 -1
-26 -1 -32 1 -51 1 -83 -2 -116 -1 -21 0 -40 3 -42 3 -2 3 -31 0 -63 -3 -33
-2 -72 1 -86 4 -14 4 -26 0 -26 -4 0 -6 -15 -4 -32 4 -50 5 -121 1 -137 -2 -8
14 -24 37 -37 22 -12 45 -26 50 -31 6 -4 35 -21 65 -37 30 -16 62 -35 71 -42
8 -8 19 -14 23 -14 4 0 73 -39 153 -86 l146 -85 39 17 c21 9 38 20 38 24 0 4
8 10 18 13 9 3 44 22 77 41 33 20 69 40 80 46 11 5 43 23 70 40 28 16 64 37
80 45 17 9 41 24 54 34 l23 18 -48 28 c-75 42 -159 98 -162 107 -2 4 -8 8 -13
8 -5 0 -17 6 -26 14 -10 8 -45 36 -78 63 -127 101 -228 201 -346 341 -46 55
-91 109 -99 121 -54 75 -66 90 -70 90 -3 0 -38 -19 -77 -42z"/>
<path d="M4785 872 c-16 -9 -31 -20 -33 -24 -2 -5 -7 -8 -11 -8 -5 0 -48 -23
-97 -52 -49 -28 -107 -61 -129 -72 -22 -11 -42 -23 -45 -26 -3 -4 -36 -24 -75
-45 -38 -21 -82 -47 -97 -57 l-28 -19 0 -158 0 -158 43 -14 c23 -8 44 -14 47
-15 3 0 12 -3 20 -7 44 -17 237 -71 290 -82 8 -2 35 -8 58 -15 45 -12 180 -37
242 -46 19 -2 42 -7 51 -9 8 -3 40 -7 70 -10 30 -3 65 -7 79 -10 14 -3 57 -8
95 -11 39 -3 76 -7 82 -9 21 -7 23 29 21 295 l-3 255 -77 45 c-136 80 -143 84
-148 85 -3 0 -16 8 -30 17 -21 13 -123 72 -258 149 -39 22 -30 22 -67 1z"/>
<path d="M3326 760 c57 -43 54 -41 119 -85 33 -22 66 -46 73 -52 7 -7 19 -13
26 -13 7 0 21 -8 32 -17 21 -19 78 -53 88 -53 16 0 3 38 -16 48 -13 7 -30 16
-38 21 -8 6 -44 26 -80 47 -36 20 -80 45 -97 55 -18 11 -50 28 -70 40 -21 11
-42 25 -47 30 -6 5 -14 9 -19 9 -6 0 8 -13 29 -30z"/>
</g>
</svg>
