<svg width="138" height="53" viewBox="0 0 138 53" fill="none" xmlns="http://www.w3.org/2000/svg">
<path fill-rule="evenodd" clip-rule="evenodd" d="M17.98 8.49557L19.4725 6.15693L29.4774 3.34515L31.7076 5.52178V23.2203L23.8472 25.4294L23.1647 24.7633V12.3789L22.5319 13.5039L18.3793 20.0931L15.6919 17.4704L17.98 8.49557ZM0.805298 35.4062L10.2753 20.5679L15.1078 25.2842L9.77014 33.7539H19.98L18.2323 40.6094H1.05139L0.805298 35.4062ZM26.2409 33.4834L31.7076 31.9471V33.7539H38.0709V40.6094H31.7076V52H31.0845L23.4258 44.5256L26.2409 33.4834ZM85.7344 30.4492C85.7344 32.7988 85.5934 34.9643 85.3115 36.946L76.3928 39.4525C76.883 37.5589 77.1492 35.2257 77.1914 32.4531V20.8867C77.1914 20.1398 77.1755 19.4241 77.1438 18.7395L81.4805 17.5207L85.7344 21.6722V30.4492ZM81.5859 47.1133C81.7042 46.9529 81.82 46.7892 81.9332 46.6222L78.244 47.659L77.4489 50.7781C79.0739 49.8746 80.453 48.653 81.5859 47.1133ZM83.1921 10.8073L76.2471 12.7591C75.9677 11.8308 75.6262 11.0244 75.2226 10.3398C73.9101 8.08984 71.8242 6.96484 68.9648 6.96484C66.1758 6.96484 64.125 8.03125 62.8125 10.1641C62.7789 10.218 62.7457 10.2728 62.713 10.3283L57.2055 4.95334L56.7856 5.07137C59.5495 1.76337 63.6093 0.109375 68.9648 0.109375C74.5664 0.109375 78.7383 1.90234 81.4805 5.48828C82.8623 7.28002 83.9077 9.51646 84.6167 12.1976L83.1921 10.8073ZM53.6293 41.4196L61.5175 39.2026C61.8311 40.4302 62.2393 41.485 62.7422 42.3672C64.0781 44.7109 66.1758 45.8828 69.0351 45.8828C69.5323 45.8828 70.006 45.8474 70.4562 45.7765L71.383 46.681L69.8512 52.6897C69.5826 52.6987 69.3106 52.7031 69.0351 52.7031C63.5039 52.7031 59.332 50.8867 56.5195 47.2539C55.2934 45.6466 54.33 43.7018 53.6293 41.4196ZM52.2889 33.0695C52.2567 32.4116 52.2372 31.7374 52.2305 31.0469V22.1875C52.2305 18.3956 52.5945 15.0921 53.3225 12.2771L55.494 11.6668L60.9054 16.9481C60.8114 17.9178 60.7557 18.9611 60.7383 20.0781V30.6949L52.2889 33.0695ZM130.831 33.7539H137.195V40.6094H130.831V52H125.4L122.288 48.9629V40.6094H120.109L121.856 33.7539H122.288V32.0592L122.322 31.9269L122.288 31.894V12.3789L121.656 13.5039L114.721 24.5082L109.892 19.7957L122.007 0.8125H130.831V33.7539ZM113.917 40.6094H100.175L99.929 35.4062L105.713 26.3439L107.497 25.8424L111.449 29.6993L108.894 33.7539H115.604L115.652 33.8014L113.917 40.6094Z" fill="#EAAE39"/>
</svg>
