<svg width="133" height="53" viewBox="0 0 133 53" fill="none" xmlns="http://www.w3.org/2000/svg">
<path fill-rule="evenodd" clip-rule="evenodd" d="M15.507 6.42828L15.0565 8.19531H31.4471L26.4774 3.34515L15.507 6.42828ZM20.8472 25.4294L14.1969 18.9392C15.5769 18.5735 17.0388 18.3906 18.5826 18.3906C23.3767 18.3906 27.1168 19.8979 29.803 22.9125L20.8472 25.4294ZM25.2779 32.911L33.5332 30.5909C33.8552 32.1503 34.0162 33.8375 34.0162 35.6523C34.0162 40.8555 32.5162 45.0039 29.5162 48.0977C28.6123 49.0228 27.6073 49.8085 26.5013 50.4549L20.9433 45.0307C21.8335 44.5667 22.6052 43.9132 23.2584 43.0703C24.735 41.1953 25.4733 38.6406 25.4733 35.4062C25.4733 34.5216 25.4081 33.6899 25.2779 32.911ZM11.4459 43.9141C12.1851 44.5817 13.0394 45.0795 14.009 45.4075L13.756 46.4001L20.0431 52.5359C19.1279 52.6474 18.1724 52.7031 17.1764 52.7031C12.4889 52.7031 8.59827 51.3789 5.50452 48.7305C2.4342 46.0586 0.770142 42.543 0.512329 38.1836H8.77405C9.10217 40.668 9.9928 42.5781 11.4459 43.9141ZM12.4303 25.9141C12.5071 25.884 12.585 25.855 12.6642 25.8271L6.02215 19.3449L10.5488 1.58931L13.3128 0.8125H4.8717L2.09436 26.6172L8.91467 28.3047C10.1803 27.1094 11.3522 26.3125 12.4303 25.9141ZM82.7344 30.4492C82.7344 32.7988 82.5934 34.9643 82.3115 36.946L73.3928 39.4525C73.883 37.5589 74.1492 35.2257 74.1914 32.4531V20.8867C74.1914 20.1398 74.1755 19.4241 74.1438 18.7395L78.4805 17.5207L82.7344 21.6722V30.4492ZM78.5859 47.1133C78.7042 46.9529 78.82 46.7892 78.9332 46.6222L75.244 47.659L74.4489 50.7781C76.0739 49.8746 77.453 48.653 78.5859 47.1133ZM80.1921 10.8073L73.2471 12.7591C72.9677 11.8308 72.6262 11.0244 72.2226 10.3398C70.9101 8.08984 68.8242 6.96484 65.9648 6.96484C63.1758 6.96484 61.125 8.03125 59.8125 10.1641C59.7789 10.218 59.7457 10.2728 59.713 10.3283L54.2055 4.95334L53.7856 5.07137C56.5495 1.76337 60.6093 0.109375 65.9648 0.109375C71.5664 0.109375 75.7383 1.90234 78.4805 5.48828C79.8623 7.28002 80.9077 9.51646 81.6167 12.1976L80.1921 10.8073ZM50.6293 41.4196L58.5175 39.2026C58.8311 40.4302 59.2393 41.485 59.7422 42.3672C61.0781 44.7109 63.1758 45.8828 66.0351 45.8828C66.5323 45.8828 67.006 45.8474 67.4562 45.7765L68.383 46.681L66.8512 52.6897C66.5826 52.6987 66.3106 52.7031 66.0351 52.7031C60.5039 52.7031 56.332 50.8867 53.5195 47.2539C52.2934 45.6466 51.33 43.7018 50.6293 41.4196ZM49.2889 33.0695C49.2567 32.4116 49.2372 31.7374 49.2305 31.0469V22.1875C49.2305 18.3956 49.5945 15.0921 50.3225 12.2771L52.494 11.6668L57.9054 16.9481C57.8114 17.9178 57.7557 18.9611 57.7383 20.0781V30.6949L49.2889 33.0695ZM132.296 30.4492C132.296 37.8086 130.913 43.3633 128.148 47.1133C126.586 49.2358 124.557 50.7538 122.06 51.6674L116.119 45.8694C118.598 45.7393 120.451 44.6656 121.679 42.6484C122.992 40.4688 123.683 37.0703 123.753 32.4531V20.8867C123.753 16.082 123.097 12.5664 121.785 10.3398C120.472 8.08984 118.386 6.96484 115.527 6.96484C112.738 6.96484 110.687 8.03125 109.374 10.1641C108.062 12.2734 107.37 15.5781 107.3 20.0781V20.1941L106.209 19.1289L98.8006 21.2109C98.9177 14.338 100.286 9.14399 102.906 5.62891C105.671 1.94922 109.878 0.109375 115.527 0.109375C121.128 0.109375 125.3 1.90234 128.042 5.48828C130.808 9.07422 132.226 14.4414 132.296 21.5898V30.4492ZM114.505 52.6787C112.297 52.5784 110.32 52.1685 108.575 51.4489L112.201 50.4298L114.505 52.6787ZM102.77 46.8298C100.186 43.1849 98.86 37.9239 98.7923 31.0469V27.4457L104.497 25.8424L107.3 28.5779V31.6797C107.3 36.4609 107.968 40.0234 109.304 42.3672C109.56 42.8171 109.845 43.2238 110.158 43.5873L109.837 44.8435L102.77 46.8298Z" fill="#EAAE39"/>
</svg>
